<svg width="3" height="11" viewBox="0 0 3 11" fill="none" xmlns="http://www.w3.org/2000/svg">
<path d="M2.75 1.75C2.75 1.0625 2.1875 0.5 1.5 0.5C0.812499 0.5 0.249999 1.0625 0.249999 1.75C0.249999 2.4375 0.812499 3 1.5 3C2.1875 3 2.75 2.4375 2.75 1.75ZM2.75 9.25C2.75 8.5625 2.1875 8 1.5 8C0.812499 8 0.249999 8.5625 0.249999 9.25C0.249999 9.9375 0.812499 10.5 1.5 10.5C2.1875 10.5 2.75 9.9375 2.75 9.25ZM2.75 5.5C2.75 4.8125 2.1875 4.25 1.5 4.25C0.812499 4.25 0.249999 4.8125 0.249999 5.5C0.249999 6.1875 0.812499 6.75 1.5 6.75C2.1875 6.75 2.75 6.1875 2.75 5.5Z" fill="black"/>
</svg>
